<svg xmlns:dc="http://purl.org/dc/elements/1.1/" xmlns:cc="http://creativecommons.org/ns#" xmlns:rdf="http://www.w3.org/1999/02/22-rdf-syntax-ns#" xmlns:svg="http://www.w3.org/2000/svg" xmlns="http://www.w3.org/2000/svg" xmlns:sodipodi="http://sodipodi.sourceforge.net/DTD/sodipodi-0.dtd" xmlns:inkscape="http://www.inkscape.org/namespaces/inkscape" version="1.1" id="svg14088" width="230" height="42" viewBox="0 0 230 42" sodipodi:docname="logo.svg" inkscape:version="0.92.1 r15371">
    <metadata id="metadata14094">
        <rdf:RDF>
            <cc:Work rdf:about="">
                <dc:format>image/svg+xml</dc:format>
                <dc:type rdf:resource="http://purl.org/dc/dcmitype/StillImage"/>
                <dc:title/>
            </cc:Work>
        </rdf:RDF>
    </metadata>
    <defs id="defs14092"/>
    <sodipodi:namedview pagecolor="#ffffff" bordercolor="#666666" borderopacity="1" objecttolerance="10" gridtolerance="10" guidetolerance="10" inkscape:pageopacity="0" inkscape:pageshadow="2" inkscape:window-width="1920" inkscape:window-height="1017" id="namedview14090" showgrid="false" inkscape:zoom="3.2758619" inkscape:cx="170.4069" inkscape:cy="11.365414" inkscape:window-x="-8" inkscape:window-y="-8" inkscape:window-maximized="1" inkscape:current-layer="svg14088"/>
    <path sodipodi:nodetypes="ccccccccccsccssccccccccccccccccccccccc" inkscape:connector-curvature="0" id="path14669" d="M 0.3052631,39.980243 V 37.960487 H 85.824332 171.3434 V 23.741404 9.5223207 h 0.81215 0.81214 V 8.3912573 7.2601938 h -1.71903 c -0.96802,0 -1.69539,-0.064448 -1.66491,-0.147515 0.0806,-0.2196973 6.20866,-7.09992796 6.33504,-7.112664616631 C 176.03701,-0.01189876 182.3886,7.0298251 182.3886,7.1727941 c 0,0.04807 -0.76748,0.0874 -1.70551,0.0874 h -1.70551 V 8.3912576 9.522321 h 0.81215 0.81214 v 14.219083 14.219083 h 24.8517 24.8517 v 2.019756 2.019756 H 115.30526 0.3052631 Z M 177.35329,8.3912573 V 7.2601938 h -1.38065 -1.38065 v 1.1310635 1.1310634 h 1.38065 1.38065 z" style="fill:#c50a26;stroke-width:0.16200438;fill-opacity:1"/>
    <path inkscape:connector-curvature="0" id="path14667" d="M 10.965961,34.47802 C 7.5475725,33.802297 4.9986246,32.330533 3.1165801,29.945783 1.0150233,27.282886 0.18791869,24.753518 0.35668836,21.505758 0.47461014,19.236501 0.74863425,18.146894 1.6840079,16.227911 2.5628585,14.424889 3.640813,13.081021 5.0628801,12.015527 9.8522991,8.4270231 16.461305,8.1074751 21.364093,11.227358 c 1.506448,0.958628 4.537862,4.07094 4.246972,4.36031 -0.03547,0.03529 -1.841067,0.686059 -4.012433,1.446163 l -3.947937,1.382004 -0.624675,-0.561406 c -1.267919,-1.139503 -1.823083,-1.40655 -2.959716,-1.423697 -1.261108,-0.01902 -2.151372,0.424297 -3.174868,1.580974 -1.1123315,1.257071 -1.5734609,3.39073 -1.1753405,5.438333 0.4731195,2.433337 2.4119745,4.130857 4.5429995,3.977517 1.534762,-0.110434 2.938824,-1.018539 2.938824,-1.900743 0,-0.108997 -0.696527,-0.169604 -1.949153,-0.169604 H 13.299614 V 22.52955 19.701892 h 7.008988 7.008989 l -0.100926,2.060151 c -0.203004,4.143853 -1.081326,6.615136 -3.104802,8.735797 -3.115699,3.265342 -8.506004,4.897363 -13.145902,3.98018 z M 30.679557,21.883228 V 9.5223207 l 6.294139,0.00129 c 8.540428,0.00179 9.666667,0.1579369 11.915723,1.6519483 2.387171,1.585761 3.729447,4.808778 3.258277,7.823632 -0.448146,2.867517 -1.748351,4.399139 -4.382741,5.162794 -0.261288,0.07574 -0.532731,-0.365804 2.870416,4.669169 3.302625,4.886247 2.924672,4.357684 3.036464,4.246474 0.04935,-0.0491 1.971913,-5.350956 4.272348,-11.781908 l 4.182613,-11.692644 5.043928,-0.042664 5.043928,-0.042665 4.409007,12.284691 c 2.424952,6.756614 4.409006,12.321125 4.409006,12.365614 0,0.04449 -2.174299,0.06163 -4.831775,0.03809 l -4.831774,-0.0428 -0.400819,-1.494619 -0.400817,-1.49462 h -3.419836 -3.419835 l -0.41463,1.49462 -0.41463,1.494619 -9.430774,0.04169 -9.430773,0.04169 -1.788224,-3.355547 C 41.265254,29.045624 40.288166,27.24544 40.077471,26.890764 l -0.383083,-0.644865 -0.04344,3.999118 -0.04344,3.999117 h -4.463971 -4.46397 z m 38.297289,3.272005 c -0.03894,-0.111086 -0.464666,-1.965223 -0.946058,-4.120302 -0.481394,-2.15508 -0.91671,-3.918327 -0.967368,-3.918327 -0.05066,0 -0.442654,1.690536 -0.871104,3.756746 -0.42845,2.066211 -0.81759,3.920347 -0.864758,4.120303 -0.0852,0.361187 -0.07336,0.363556 1.817164,0.363556 1.451814,0 1.886142,-0.04788 1.832124,-0.201976 z M 42.603509,20.343078 c 0.768949,-0.385931 1.095617,-0.964789 1.104583,-1.957326 0.01592,-1.761489 -0.910044,-2.551483 -2.998521,-2.558244 l -1.096398,-0.0035 v 2.440817 2.440815 L 40.872001,20.643 c 0.692355,-0.03445 1.471534,-0.169396 1.731508,-0.299876 z m 41.352885,1.537554 V 9.5171275 l 4.423473,0.042992 4.423474,0.042992 3.753325,6.1816355 c 2.06433,3.399899 3.783834,6.21198 3.821114,6.249069 0.0373,0.03709 0.0407,-2.762825 0.008,-6.22203 l -0.0601,-6.2894647 h 4.40379 4.40379 V 21.883228 34.244136 h -4.52525 -4.52525 l -3.798826,-6.302924 c -2.089355,-3.466608 -3.822777,-6.23145 -3.852048,-6.144093 -0.02927,0.08736 0.02535,1.073497 0.121391,2.191422 0.09604,1.117925 0.174613,3.882768 0.174613,6.144093 v 4.111502 h -4.385593 -4.385593 z m 29.074856,-0.01394 V 9.4892452 l 5.88807,0.077344 c 6.46946,0.08498 7.52731,0.212244 10.3835,1.2491768 1.71623,0.623071 2.60848,1.156021 3.7669,2.250008 1.71609,1.620637 2.91912,3.571076 3.50923,5.689455 0.4059,1.457089 0.45106,4.551421 0.0912,6.252971 -1.09911,5.197698 -5.04055,8.24885 -11.70038,9.057515 -0.80402,0.09763 -3.81912,0.17771 -6.70021,0.17796 l -5.23835,4.61e-4 V 21.866692 Z m 11.65056,4.538701 c 1.72007,-0.508631 2.79546,-1.623976 3.13513,-3.251623 0.36719,-1.759517 -0.27357,-3.992769 -1.38827,-4.838551 -0.78519,-0.59576 -1.95062,-0.994024 -3.2942,-1.125723 l -1.1696,-0.114643 v 4.889164 4.889162 l 0.97083,-0.109262 c 0.53395,-0.06009 1.3197,-0.212428 1.74611,-0.338519 z m 25.22091,-4.52216 V 9.5223207 h 4.54802 4.54803 v 8.4021853 8.402186 h 4.38559 4.38559 v 3.958722 3.958722 h -8.93361 -8.93362 z m 34.59746,-0.0026 V 9.5171226 l 4.42107,0.042992 4.42107,0.042992 3.75119,6.1771124 c 2.06314,3.397411 3.78373,6.209491 3.8235,6.249069 0.0398,0.03958 0.0453,-2.758302 0.0122,-6.217507 l -0.0601,-6.2894598 h 4.4038 4.40378 V 21.883228 34.244136 h -4.52525 -4.52525 l -3.79881,-6.302924 c -2.08936,-3.466608 -3.82278,-6.23145 -3.85206,-6.144093 -0.0293,0.08736 0.0254,1.073497 0.12139,2.191422 0.096,1.117925 0.17462,3.882768 0.17462,6.144093 v 4.111502 h -4.3856 -4.38559 V 21.880632 Z m 28.58757,0.0026 V 9.5223207 h 8.44633 8.44633 v 3.3931903 3.39319 h -3.89831 -3.8983 v 1.131064 1.131063 h 3.57344 3.57345 v 3.15082 3.150819 h -3.57345 -3.57344 v 1.292644 1.292644 h 4.06073 4.06074 v 3.39319 3.393191 h -8.60876 -8.60876 z" style="fill:#231f20;fill-opacity:1;stroke-width:0.16200438"/>
    <g id="g14659" transform="translate(4.8842107,-583.09475)"/>
</svg>