<svg xmlns="http://www.w3.org/2000/svg"  version="1.0" width="70px" height="40px" viewBox="0 0 1280.000000 797.000000" preserveAspectRatio="xMidYMid meet">
    <g transform="translate(0.000000,797.000000) scale(0.100000,-0.100000)" fill="#b4af91" stroke="none">
        <path d="M2740 5928 l-2375 -1903 711 -3 711 -2 1276 957 c701 527 1771 1330 2376 1785 l1101 826 602 -481 c1185 -945 1940 -1541 1848 -1457 -25 22 -44 45 -42 51 1 6 3 26 4 45 l1 34 46 -37 c25 -21 42 -32 38 -26 -9 15 -887 758 -1797 1522 l-704 591 -711 0 -710 0 -2375 -1902z"/>
        <path d="M7520 7056 c36 -33 499 -415 517 -426 17 -11 39 1 202 120 l182 133 47 -34 c26 -18 340 -252 697 -519 358 -267 676 -505 708 -529 32 -23 57 -44 55 -46 -2 -2 -113 -16 -247 -30 l-244 -27 -102 -91 c-56 -51 -479 -438 -940 -862 l-839 -770 407 -3 407 -2 422 373 c233 205 549 483 703 619 154 135 351 309 439 386 l158 140 1142 -855 c1259 -944 1190 -893 1121 -832 -78 69 -1046 910 -1103 958 -28 24 -49 47 -47 51 3 4 -73 71 -168 147 -94 77 -347 292 -560 477 -292 254 -393 336 -407 331 -19 -6 -32 4 -1110 884 l-515 420 -470 0 c-395 1 -467 -1 -455 -13z"/>
        <path d="M5780 5351 l0 -368 77 -7 c97 -8 492 -8 561 0 l52 7 0 368 0 369 -345 0 -345 0 0 -369z"/>
        <path d="M6620 5351 l0 -368 53 -7 c68 -8 463 -8 560 0 l77 7 0 368 0 369 -345 0 -345 0 0 -369z"/>
        <path d="M9065 5690 c10 -11 20 -20 23 -20 3 0 -3 9 -13 20 -10 11 -20 20 -23 20 -3 0 3 -9 13 -20z"/>
        <path d="M9040 5606 c0 -2 8 -10 18 -17 15 -13 16 -12 3 4 -13 16 -21 21 -21 13z"/>
        <path d="M5780 4485 l0 -375 345 0 345 0 0 375 0 375 -345 0 -345 0 0 -375z"/>
        <path d="M6620 4490 l0 -370 345 0 345 0 0 370 0 370 -345 0 -345 0 0 -370z"/>
        <path d="M11210 4806 c0 -2 26 -23 58 -46 l57 -42 -50 46 c-45 40 -65 54 -65 42z"/>
        <path d="M7462 3958 c-19 -24 -62 -118 -54 -118 4 0 37 29 72 65 l64 65 -36 0 c-19 0 -40 -6 -46 -12z"/>
    </g>
</svg>