<svg xmlns="http://www.w3.org/2000/svg" fill="white" viewBox="0 0 409.92 277.91" width="20" height="14"><g data-name="Слой 2"><g data-name="6"><path d="M377.69 277.91H32.23A32.27 32.27 0 0 1 0 245.68V32.23A32.27 32.27 0 0 1 32.23 0h345.46a32.27 32.27 0 0 1 32.23 32.23v213.45a32.27 32.27 0 0 1-32.23 32.23zM32.23 14A18.25 18.25 0 0 0 14 32.23v213.45a18.25 18.25 0 0 0 18.23 18.23h345.46a18.25 18.25 0 0 0 18.23-18.23V32.23A18.25 18.25 0 0 0 377.69 14z" class="path-ixqhxdc0t"></path><path d="M205 177.61a7 7 0 0 1-3.87-1.16L6.41 47.38a7 7 0 1 1 7.73-11.67L205 162.21l190.78-126.5a7 7 0 0 1 7.73 11.67L208.83 176.45a7 7 0 0 1-3.83 1.16z " stroke="white"></path></g></g></svg>