<svg xmlns="http://www.w3.org/2000/svg" fill="white" viewBox="0 0 428.14 394.7" width="20" height="18" data-prefix="igxz8pfg7"><g data-name="Слой 2"><g data-name="1"><path d="M401 394.7H27.16a27.14 27.14 0 0 1-25.72-35.78l46.47-138.23a27.11 27.11 0 0 1 25.72-18.49h83.17a7 7 0 0 1 0 14H73.63a13.13 13.13 0 0 0-12.45 9L14.71 363.38a13.14 13.14 0 0 0 12.45 17.32H401a13.13 13.13 0 0 0 12.45-17.32L367 225.15a13.13 13.13 0 0 0-12.45-9H270.8a7 7 0 0 1 0-14h83.71a27.11 27.11 0 0 1 25.72 18.49l46.46 138.23A27.13 27.13 0 0 1 401 394.7z" class="path-i33ia4ctb"></path><path d="M214.07 301.08a7 7 0 0 1-5.64-2.86c-4.08-5.55-99.85-136.69-99.85-192.73a105.49 105.49 0 1 1 211 0c0 56-95.76 187.18-99.84 192.73a7 7 0 0 1-5.67 2.86zm0-287.08a91.59 91.59 0 0 0-91.49 91.49c0 44.16 70.75 147.29 91.49 176.58 20.74-29.29 91.48-132.42 91.48-176.58A91.59 91.59 0 0 0 214.07 14z" class="path-iqkel1zez"></path><path d="M214.07 166.66a61.18 61.18 0 1 1 61.17-61.17 61.24 61.24 0 0 1-61.17 61.17zm0-108.35a47.18 47.18 0 1 0 47.17 47.18 47.23 47.23 0 0 0-47.17-47.18z" class="path-i7p5mndp1"></path></g></g></svg>