<svg xmlns="http://www.w3.org/2000/svg" viewBox="0 0 190 190" width="20" height="20" data-prefix="iilf9uk0i"><g data-name="Слой 2"><g data-name="Layer 1" stroke-linecap="round" stroke-linejoin="round" stroke-width="10"><path d="M180.13 152.62c1.71-5.85 1.56-21.88-6.73-26.69L147.53 113a16 16 0 0 0-21.2 6.83c-1.52 2.85-2.6 5-2.6 5-10.88-.07-31.95-16.29-39.81-23.89-7.6-7.81-23.81-28.87-23.92-39.76 0 0 2-.82 4.72-2A15.92 15.92 0 0 0 72.5 37.5L60.07 12.6c-4.81-8.29-20.84-8.44-26.69-6.73A40.9 40.9 0 0 0 9.13 25.62c-6.89 12.66-3.93 29.16 0 45.8 7.95 23.63 22.13 45 41.78 63.67 18.65 19.65 40.05 33.83 63.67 41.78 16.64 3.93 33.14 6.89 45.8 0a40.9 40.9 0 0 0 19.75-24.25zM115.88 5a64 64 0 0 1 64 64M115.88 37a32 32 0 0 1 32 32" fill="none" stroke="white"></path></g></g></svg>