<svg xmlns="http://www.w3.org/2000/svg" viewBox="0 0 207.14 197.35"><defs><style>.cls-1{fill:#ffce00;}</style></defs><g id="Слой_2" data-name="Слой 2"><g id="_5_star" data-name="5 star"><path class="cls-1" d="M99.15,3.7c2.43-4.93,6.41-4.93,8.85,0l24.65,49.95c2.43,4.94,8.88,9.62,14.32,10.41l55.13,8c5.44.79,6.67,4.58,2.74,8.42l-39.9,38.88c-3.93,3.84-6.4,11.42-5.47,16.84l9.42,54.9c.93,5.42-2.29,7.76-7.16,5.21l-49.31-25.93c-4.87-2.56-12.83-2.56-17.7,0L45.41,196.32c-4.87,2.55-8.09.21-7.16-5.21l9.42-54.9c.93-5.42-1.53-13-5.47-16.84L2.31,80.49C-1.63,76.65-.4,72.86,5,72.07l55.13-8c5.44-.79,11.89-5.47,14.32-10.41Z"/></g></g></svg>