<svg xmlns="http://www.w3.org/2000/svg" viewBox="0 0 442.78 444.85" width="70px" stroke="#b4af91" fill="#b4af91" height="70px" data-prefix="idrjbx4es"><g data-name="Слой 2"><g data-name="Layer 1" fill-rule="evenodd"><path d="M436.81 170.55C412.54 69.86 325.93 1.19 221.23 0a225.24 225.24 0 0 0-42.5 4.35C32.68 33.93-43 195.86 28.19 326.61a12.23 12.23 0 0 1 1 9.95Q14.95 388.25.87 439.84C-.66 445.49-.66 445.49 5 444c35.74-9.38 71.42-18.65 107.13-28.13a10.32 10.32 0 0 1 8 .9q69 35.25 145.19 20.57c121.2-23.49 200.42-146.78 171.49-266.79zM252.13 402c-10 1.7-20 2.6-25.28 2.49-38.85-.12-70.52-8.82-99.64-26.44a13.35 13.35 0 0 0-11.33-1.7c-19.58 5.41-39.3 10.27-58.88 15.46-4.12 1.25-4.52.34-3.47-3.39 5.2-18.64 10.08-37.17 15.45-55.6A15.22 15.22 0 0 0 67 319c-40.29-64.75-38.6-145.44 6.49-205.33C120.29 51.33 184 25.79 260.16 42.06c75.09 15.83 123 64.3 140.55 139C424.75 283.22 355.42 384.8 252.13 402z" class="path-i5x38yw4w"></path><path d="M279 326.84c-7.88.34-15.4-1.47-22.94-3.51-50.71-14.57-88.77-46.33-119.34-88.14-11.55-15.71-22.26-32-25.81-51.53-4.27-23.51 2.48-43.39 20-59.67 5.56-5.09 22.51-7.34 29.29-4.07a11.45 11.45 0 0 1 5.18 5.88c6.41 15.26 12.74 30.28 19 45.54 1.18 2.94.67 5.76-.65 8.7-3.22 7-8.4 12.66-13.65 18.19-4 4.08-4.15 7.8-1.21 12.66 17.91 29.84 42.68 51.53 75.09 64.53 4.83 1.92 8.48 1.24 11.69-2.83 5.4-6.66 11.11-13.33 16.22-20.22 3.5-4.86 7.52-5.54 12.46-3.28 10.71 4.86 21.41 9.94 32.12 15 2.4 1 4.77 2.26 7.15 3.39 10.84 5.43 10.73 5.54 9.8 17.51-1.81 23.39-19.35 34.93-40.14 40.69a46.46 46.46 0 0 1-14.26 1.16z" class="path-ivuf5y9kv"></path></g></g></svg>